<svg t="1622808879442" class="icon" viewBox="0 0 1024 1024" version="1.1" xmlns="http://www.w3.org/2000/svg" p-id="2472" width="200" height="200"><path d="M0 128C0 57.6 57.6 0 128 0h768c70.4 0 128 57.6 128 128v768c0 70.4-57.6 128-128 128H128C57.6 1024 0 966.4 0 896V128z m64 0v768c0 32 25.6 64 64 64h768c32 0 64-25.6 64-64V128c0-32-25.6-64-64-64H128c-38.4 0-64 25.6-64 64z" fill="#3BA9F6" p-id="2473"></path><path d="M256 512.8c0-19.2 12.8-32 32-32h447.2c19.2 0 32 12.8 32 32s-12.8 32-32 32h-448c-19.2 0-31.2-12.8-31.2-32z" fill="#3BA9F6" p-id="2474"></path><path d="M511.2 256.8c19.2 0 32 12.8 32 32V736c0 19.2-12.8 32-32 32s-32-12.8-32-32V288.8c0-19.2 12.8-32 32-32z" fill="#3BA9F6" p-id="2475"></path></svg>